<?xml version="1.0" encoding="utf-8"?>

<!-- Generator: Adobe Illustrator 21.1.0, SVG Export Plug-In . SVG Version: 6.00 Build 0)  -->
<svg version="1.1" id="Layer_1" xmlns="http://www.w3.org/2000/svg" xmlns:xlink="http://www.w3.org/1999/xlink" x="0px" y="0px"
	 viewBox="0 0 1920 492" style="enable-background:new 0 0 1920 492;" xml:space="preserve">
<style type="text/css">
 path,
 circle,
 polygon {
    fill: #fff;
  }
</style>
<g>
	<g>
		<path d="M663.6,367.7V124.3h82.8c24.5,0,65.3,3.3,96.7,33.6c28.5,27.4,33.9,62.4,33.9,88.7c0,32.1-8,60.6-31.7,84.3
			c-19.3,19.3-51.8,36.9-93.4,36.9H663.6z M726.7,314.1h12.8c15.3,0,36.9-1.5,53.3-17.5c8-7.7,18.6-23,18.6-50
			c0-22.6-6.9-42-19-53.3c-15-13.9-34.7-15.3-50.4-15.3h-15.3V314.1z"/>
		<path d="M1059.4,177.9h-75.2v40.5h71.2v53.6h-71.2v42h75.2v53.6H921.1V124.3h138.3V177.9z"/>
		<path d="M1158.4,124.3l58.4,148.2l59.1-148.2h68.6l-103.6,243.4h-49.3l-102.2-243.4H1158.4z"/>
		<g>
			<polygon points="1387,124.3 1385.6,124.3 1352.4,200.9 1379.3,278.7 1318.6,278.7 1298.2,326.8 1396.1,326.8 1411.1,367.7
				1478.6,367.7 			"/>
		</g>
		<path d="M1575.6,287.1v80.7h-63.1V124.3h100.7c21.2,0,43.1,4,61.7,21.9c19,18.2,22.6,38.7,22.6,59.1c0,19.3-2.6,42-21.5,60.6
			c-19,18.6-41.6,21.2-60.6,21.2H1575.6z M1575.6,236h21.2c6.6,0,19-0.7,26.6-7.7c7.7-6.6,8-16.4,8-22.3c0-6.6-0.7-15.3-7.3-21.9
			c-7.3-7.7-19-8.8-27-8.8h-21.5V236z"/>
		<path d="M1897.4,146.2c-18.6-17.9-40.5-21.9-61.7-21.9H1735v243.4h63.1v-80.7h39.8c19,0,41.6-2.6,60.6-21.2
			c19-18.6,21.5-41.2,21.5-60.6C1920,184.9,1916.3,164.4,1897.4,146.2z M1845.9,228.3c-7.7,6.9-20.1,7.7-26.6,7.7h-21.2v-60.6h21.5
			c8,0,19.7,1.1,27,8.8c6.6,6.6,7.3,15.3,7.3,21.9C1853.9,211.9,1853.6,221.7,1845.9,228.3z"/>
	</g>
	<g>
		<path d="M246.2,131.2c-63.3,0-114.8,51.5-114.8,114.8c0,63.3,51.5,114.8,114.8,114.8S361,309.3,361,246
			C361,182.7,309.5,131.2,246.2,131.2z"/>
		<path d="M349.2,95.6c0,30.3,24.7,55,55,55c30.3,0,55-24.7,55-55c0-30.3-24.7-55-55-55C373.8,40.7,349.2,65.3,349.2,95.6z"/>
		<path d="M470.3,144l-5.2-11.4l-8.3,9.4c-7.7,8.7-17.5,15.5-28.3,19.5l-7.9,2.9l3.3,7.8c9.8,23.5,14.7,48.3,14.7,73.8
			c0,106.1-86.3,192.4-192.4,192.4S53.8,352.1,53.8,246S140.1,53.6,246.2,53.6c28.8,0,56.5,6.3,82.4,18.6l7.6,3.6l3.3-7.8
			c4.5-10.6,11.7-20,20.8-27.3l9.8-7.8l-11.1-5.7C323.9,9,285.9-0.2,246.2-0.2C110.4-0.2,0,110.2,0,246s110.4,246.2,246.2,246.2
			S492.4,381.8,492.4,246C492.4,210.5,484.9,176.2,470.3,144z"/>
	</g>
</g>
</svg>
