<?xml version="1.0" encoding="utf-8"?>
<!-- Generator: Adobe Illustrator 21.1.0, SVG Export Plug-In . SVG Version: 6.00 Build 0)  -->
<svg version="1.1" id="Layer_1" xmlns="http://www.w3.org/2000/svg" xmlns:xlink="http://www.w3.org/1999/xlink" x="0px" y="0px"
	 viewBox="0 0 1256 492" style="enable-background:new 0 0 1256 492;" xml:space="preserve">
<style type="text/css">
 path,
 circle,
 polygon {
    fill: #fff;
  }
</style>
<g>
	<g>
		<path d="M-0.4,367.7V124.3h82.8c24.5,0,65.3,3.3,96.7,33.6c28.5,27.4,33.9,62.4,33.9,88.7c0,32.1-8,60.6-31.7,84.3
			c-19.3,19.3-51.8,36.9-93.4,36.9H-0.4z M62.7,314.1h12.8c15.3,0,36.9-1.5,53.3-17.5c8-7.7,18.6-23,18.6-50c0-22.6-6.9-42-19-53.3
			c-15-13.9-34.7-15.3-50.4-15.3H62.7V314.1z"/>
		<path d="M395.4,177.9h-75.2v40.5h71.2v53.6h-71.2v42h75.2v53.6H257.1V124.3h138.3V177.9z"/>
		<path d="M494.4,124.3l58.4,148.2L612,124.3h68.6L576.9,367.7h-49.3L425.5,124.3H494.4z"/>
		<g>
			<polygon points="723,124.3 721.6,124.3 688.4,200.9 715.3,278.7 654.6,278.7 634.2,326.8 732.1,326.8 747.1,367.7 814.6,367.7
							"/>
		</g>
		<path d="M911.6,287.1v80.7h-63.1V124.3h100.7c21.2,0,43.1,4,61.7,21.9c19,18.2,22.6,38.7,22.6,59.1c0,19.3-2.6,42-21.5,60.6
			c-19,18.6-41.6,21.2-60.6,21.2H911.6z M911.6,236h21.2c6.6,0,19-0.7,26.6-7.7c7.7-6.6,8-16.4,8-22.3c0-6.6-0.7-15.3-7.3-21.9
			c-7.3-7.7-19-8.8-27-8.8h-21.5V236z"/>
		<path d="M1233.4,146.2c-18.6-17.9-40.5-21.9-61.7-21.9H1071v243.4h63.1v-80.7h39.8c19,0,41.6-2.6,60.6-21.2
			c19-18.6,21.5-41.2,21.5-60.6C1256,184.9,1252.3,164.4,1233.4,146.2z M1181.9,228.3c-7.7,6.9-20.1,7.7-26.6,7.7h-21.2v-60.6h21.5
			c8,0,19.7,1.1,27,8.8c6.6,6.6,7.3,15.3,7.3,21.9C1189.9,211.9,1189.6,221.7,1181.9,228.3z"/>
	</g>
</g>
</svg>
