<?xml version="1.0" encoding="utf-8"?>
<!-- Generator: Adobe Illustrator 21.1.0, SVG Export Plug-In . SVG Version: 6.00 Build 0)  -->
<svg version="1.1" id="Layer_1" xmlns="http://www.w3.org/2000/svg" xmlns:xlink="http://www.w3.org/1999/xlink" x="0px" y="0px"
	 viewBox="0 0 512 512" style="enable-background:new 0 0 512 512;" xml:space="preserve">
<style type="text/css">
 path,
 circle,
 polygon {
    fill: #fff;
  }
</style>
<g>
	<path d="M387.2,217c-2.4-67.2-57.7-121-125.5-121c-58,0-106.8,39.3-121.3,92.7c-0.1,0.1-0.2,0.2-0.4,0.3c-60,6-107,45-107,107
		c0,66,54,120,120,120h228c55,0,100-45,100-100C481,263.1,439.1,220.1,387.2,217z M158,325.3c-13.3,0-24-10.7-24-24
		c0-13.3,10.7-24,24-24s24,10.7,24,24C182,314.6,171.3,325.3,158,325.3z M256,325.3c-13.3,0-24-10.7-24-24c0-13.3,10.7-24,24-24
		s24,10.7,24,24C280,314.6,269.3,325.3,256,325.3z M354,325.3c-13.3,0-24-10.7-24-24c0-13.3,10.7-24,24-24s24,10.7,24,24
		C378,314.6,367.3,325.3,354,325.3z"/>
</g>
</svg>
