<?xml version="1.0" encoding="utf-8"?>
<!-- Generator: Adobe Illustrator 21.1.0, SVG Export Plug-In . SVG Version: 6.00 Build 0)  -->
<svg version="1.1" id="Layer_1" xmlns="http://www.w3.org/2000/svg" xmlns:xlink="http://www.w3.org/1999/xlink" x="0px" y="0px"
	 viewBox="0 0 512 512" style="enable-background:new 0 0 512 512;" xml:space="preserve">
<style type="text/css">
 path,
 circle,
 polygon {
    fill: #fff;
  }
</style>
<path d="M432,64H143.5c-8.8,0-16,7.7-16,16.5V112H106c-23.1,0-42,18.9-42,42v207.5c0,47.6,33,86.5,63.7,86.5h221.6
	c61.5,0,98.7-36.9,98.7-82V80C448,71.2,440.8,64,432,64z M127.5,336c0,0-0.5,16.7-0.5,32s-3.8,30.3-12.8,30.3S96,383.7,96,361.5
	s0-198.3,0-198.3c0-10.6,7.4-19.2,18-19.2h13.5V336z M356.7,384H191.6c8,0,8-32,8-32H376C376,363,376,384,356.7,384z M376,320H199.6
	v-32H376V320z M376,256H199.6v-32H376V256z M376,192H199.6v-56H376V192z"/>
</svg>
