<?xml version="1.0" encoding="utf-8"?>
<!-- Generator: Adobe Illustrator 21.1.0, SVG Export Plug-In . SVG Version: 6.00 Build 0)  -->
<svg version="1.1" id="Layer_1" xmlns="http://www.w3.org/2000/svg" xmlns:xlink="http://www.w3.org/1999/xlink" x="0px" y="0px"
	 viewBox="0 0 512 512" style="enable-background:new 0 0 512 512;" xml:space="preserve">
<path d="M445,102.9h-79.9v80h24v19c0,17.1-3.4,32-45.6,41.9c-4.3,1-8.7,2-13,3c-23.6,5.3-45.8,10.3-63.7,20.9
	c-0.6,0.3-1.1,0.7-1.7,1V113.6h40.5L249.1,32l-56.5,81.6h40.5v211.9c-15.5-9.8-34.8-14.8-53.6-19.7c-3.7-1-7.5-1.9-11.2-2.9
	c-38.2-10.4-41.4-27.2-41.4-42.1v-24c16.4-6.4,28-22.3,28-41c0-24.3-19.7-44-44-44s-44,19.7-44,44c0,18.7,11.6,34.6,28,41v24
	c0,37.3,21.3,61.1,65.1,73c3.9,1,7.7,2,11.5,3c17.9,4.6,34.8,9,46.1,16.8c8.4,5.8,12.3,9.8,14.1,17c-22.4,7.3-38.6,28.4-38.6,53.3
	c0,30.9,25.1,56,56,56s56-25.1,56-56c0-25.4-16.9-46.8-40-53.7V328c0-30.6,20.9-38.4,72.3-49.9c4.4-1,8.8-2,13.2-3
	c48.6-11.4,70.3-34,70.3-73.1v-19h24V102.9z"/>
</svg>
